STARTFONT 2.1
FONT -FontForge-Barlow Condensed Thin-Light-R-Condensed-Thin--20-190-75-75-P-72-ISO10646-1
SIZE 19 75 75
FONTBOUNDINGBOX 15 21 0 -4
COMMENT "Generated by fontforge, http://fontforge.sourceforge.net"
COMMENT "Copyright 2017 The Barlow Project Authors (https://github.com/jpt/barlow)"
STARTPROPERTIES 39
FOUNDRY "FontForge"
FAMILY_NAME "Barlow Condensed Thin"
WEIGHT_NAME "Light"
SLANT "R"
SETWIDTH_NAME "Condensed"
ADD_STYLE_NAME "Thin"
PIXEL_SIZE 20
POINT_SIZE 190
RESOLUTION_X 75
RESOLUTION_Y 75
SPACING "P"
AVERAGE_WIDTH 72
CHARSET_REGISTRY "ISO10646"
CHARSET_ENCODING "1"
FONTNAME_REGISTRY ""
CHARSET_COLLECTIONS "ISO10646-1"
FONT_NAME "BarlowCondensed-Thin"
FACE_NAME "Barlow Condensed Thin"
COPYRIGHT "Copyright 2017 The Barlow Project Authors (https://github.com/jpt/barlow)"
FONT_VERSION "1.408"
FONT_ASCENT 16
FONT_DESCENT 4
UNDERLINE_POSITION -2
UNDERLINE_THICKNESS 1
X_HEIGHT 9
CAP_HEIGHT 13
RAW_ASCENT 800
RAW_DESCENT 200
NORM_SPACE 4
RELATIVE_WEIGHT 25
RELATIVE_SETWIDTH 30
SUPERSCRIPT_X 0
SUPERSCRIPT_Y 7
SUPERSCRIPT_SIZE 12
SUBSCRIPT_X 0
SUBSCRIPT_Y 1
SUBSCRIPT_SIZE 12
AVG_LOWERCASE_WIDTH 71
AVG_UPPERCASE_WIDTH 85
ENDPROPERTIES
CHARS 99
STARTCHAR space
ENCODING 32
SWIDTH 200 0
DWIDTH 4 0
BBX 1 1 0 0
BITMAP
00
ENDCHAR
STARTCHAR exclam
ENCODING 33
SWIDTH 235 0
DWIDTH 5 0
BBX 1 13 2 1
BITMAP
80
80
80
80
80
80
80
80
80
00
00
00
80
ENDCHAR
STARTCHAR quotedbl
ENCODING 34
SWIDTH 170 0
DWIDTH 3 0
BBX 3 4 1 10
BITMAP
A0
A0
A0
A0
ENDCHAR
STARTCHAR numbersign
ENCODING 35
SWIDTH 573 0
DWIDTH 11 0
BBX 8 13 2 1
BITMAP
21
22
22
22
FF
42
42
44
44
44
44
84
84
ENDCHAR
STARTCHAR dollar
ENCODING 36
SWIDTH 400 0
DWIDTH 8 0
BBX 7 17 1 -1
BITMAP
10
10
78
44
82
82
40
40
10
18
04
04
82
82
4C
70
10
ENDCHAR
STARTCHAR percent
ENCODING 37
SWIDTH 790 0
DWIDTH 16 0
BBX 13 15 2 0
BITMAP
1000
4840
8440
8480
4880
3900
0100
0200
0200
0420
04E0
0890
1108
1088
2070
ENDCHAR
STARTCHAR ampersand
ENCODING 38
SWIDTH 507 0
DWIDTH 10 0
BBX 9 15 1 0
BITMAP
1000
3800
4400
4400
4400
2400
1800
1000
3800
4400
4500
8300
8200
4500
7880
ENDCHAR
STARTCHAR quotesingle
ENCODING 39
SWIDTH 89 0
DWIDTH 2 0
BBX 1 3 1 11
BITMAP
80
80
80
ENDCHAR
STARTCHAR parenleft
ENCODING 40
SWIDTH 169 0
DWIDTH 3 0
BBX 3 18 0 -2
BITMAP
20
40
40
40
40
40
80
80
80
80
80
80
40
40
40
40
40
20
ENDCHAR
STARTCHAR parenright
ENCODING 41
SWIDTH 169 0
DWIDTH 3 0
BBX 3 18 1 -2
BITMAP
80
40
40
40
40
20
20
20
20
20
20
20
20
40
40
40
40
80
ENDCHAR
STARTCHAR asterisk
ENCODING 42
SWIDTH 360 0
DWIDTH 7 0
BBX 7 7 1 8
BITMAP
10
96
38
30
54
10
10
ENDCHAR
STARTCHAR plus
ENCODING 43
SWIDTH 444 0
DWIDTH 9 0
BBX 1 8 5 3
BITMAP
80
80
80
80
80
80
80
80
ENDCHAR
STARTCHAR comma
ENCODING 44
SWIDTH 158 0
DWIDTH 3 0
BBX 2 5 1 -1
BITMAP
40
40
40
80
80
ENDCHAR
STARTCHAR hyphen
ENCODING 45
SWIDTH 303 0
DWIDTH 6 0
BBX 1 1 6 6
BITMAP
00
ENDCHAR
STARTCHAR period
ENCODING 46
SWIDTH 170 0
DWIDTH 3 0
BBX 1 1 2 1
BITMAP
80
ENDCHAR
STARTCHAR slash
ENCODING 47
SWIDTH 286 0
DWIDTH 6 0
BBX 4 14 1 0
BITMAP
10
10
10
10
20
20
20
20
40
40
40
40
80
80
ENDCHAR
STARTCHAR zero
ENCODING 48
SWIDTH 439 0
DWIDTH 9 0
BBX 7 15 1 0
BITMAP
10
3C
44
82
82
82
82
82
82
82
82
82
82
44
3C
ENDCHAR
STARTCHAR one
ENCODING 49
SWIDTH 239 0
DWIDTH 5 0
BBX 3 14 1 0
BITMAP
A0
20
20
20
20
20
20
20
20
20
20
20
20
20
ENDCHAR
STARTCHAR two
ENCODING 50
SWIDTH 380 0
DWIDTH 8 0
BBX 6 15 1 0
BITMAP
10
78
44
84
84
04
08
08
10
10
20
20
40
40
FC
ENDCHAR
STARTCHAR three
ENCODING 51
SWIDTH 392 0
DWIDTH 8 0
BBX 6 14 1 0
BITMAP
04
08
08
10
10
18
04
04
04
84
84
84
4C
70
ENDCHAR
STARTCHAR four
ENCODING 52
SWIDTH 375 0
DWIDTH 8 0
BBX 7 14 1 0
BITMAP
10
10
10
20
20
24
44
44
84
7E
04
04
04
04
ENDCHAR
STARTCHAR five
ENCODING 53
SWIDTH 391 0
DWIDTH 8 0
BBX 6 14 1 0
BITMAP
80
80
80
80
80
A0
7C
04
04
04
84
84
4C
70
ENDCHAR
STARTCHAR six
ENCODING 54
SWIDTH 392 0
DWIDTH 8 0
BBX 6 15 1 0
BITMAP
10
78
44
84
80
80
A0
7C
84
84
84
84
84
44
78
ENDCHAR
STARTCHAR seven
ENCODING 55
SWIDTH 342 0
DWIDTH 7 0
BBX 6 14 1 0
BITMAP
84
04
04
04
08
08
08
08
10
10
10
20
20
20
ENDCHAR
STARTCHAR eight
ENCODING 56
SWIDTH 412 0
DWIDTH 8 0
BBX 6 15 1 0
BITMAP
10
38
44
84
84
44
44
38
64
84
84
84
44
44
38
ENDCHAR
STARTCHAR nine
ENCODING 57
SWIDTH 385 0
DWIDTH 8 0
BBX 6 15 1 0
BITMAP
10
78
44
84
84
84
84
44
2C
04
04
44
44
44
78
ENDCHAR
STARTCHAR colon
ENCODING 58
SWIDTH 173 0
DWIDTH 3 0
BBX 1 8 2 1
BITMAP
80
80
00
00
00
00
00
80
ENDCHAR
STARTCHAR semicolon
ENCODING 59
SWIDTH 170 0
DWIDTH 3 0
BBX 2 11 1 -1
BITMAP
40
40
00
00
00
00
00
40
40
80
80
ENDCHAR
STARTCHAR less
ENCODING 60
SWIDTH 444 0
DWIDTH 9 0
BBX 7 8 2 2
BITMAP
06
18
60
80
80
20
08
02
ENDCHAR
STARTCHAR equal
ENCODING 61
SWIDTH 444 0
DWIDTH 9 0
BBX 7 1 2 9
BITMAP
FE
ENDCHAR
STARTCHAR greater
ENCODING 62
SWIDTH 444 0
DWIDTH 9 0
BBX 8 8 1 2
BITMAP
80
20
08
02
03
0C
30
40
ENDCHAR
STARTCHAR question
ENCODING 63
SWIDTH 330 0
DWIDTH 7 0
BBX 6 14 1 1
BITMAP
10
78
44
84
84
04
08
10
10
20
20
00
00
20
ENDCHAR
STARTCHAR at
ENCODING 64
SWIDTH 764 0
DWIDTH 15 0
BBX 14 13 1 -1
BITMAP
01E0
1830
2008
2388
4488
4484
8888
8888
8888
4590
4000
4000
1040
ENDCHAR
STARTCHAR A
ENCODING 65
SWIDTH 367 0
DWIDTH 7 0
BBX 8 14 0 0
BITMAP
10
18
18
28
24
24
24
24
44
42
42
42
82
81
ENDCHAR
STARTCHAR B
ENCODING 66
SWIDTH 436 0
DWIDTH 9 0
BBX 7 14 2 0
BITMAP
90
84
82
82
82
84
78
84
82
82
82
82
84
70
ENDCHAR
STARTCHAR C
ENCODING 67
SWIDTH 435 0
DWIDTH 9 0
BBX 7 15 1 0
BITMAP
10
3C
44
82
80
80
80
80
80
80
80
82
82
44
3C
ENDCHAR
STARTCHAR D
ENCODING 68
SWIDTH 459 0
DWIDTH 9 0
BBX 7 14 2 0
BITMAP
90
84
82
82
82
82
82
82
82
82
82
84
84
70
ENDCHAR
STARTCHAR E
ENCODING 69
SWIDTH 424 0
DWIDTH 8 0
BBX 6 14 2 0
BITMAP
80
80
80
80
80
80
78
80
80
80
80
80
80
FC
ENDCHAR
STARTCHAR F
ENCODING 70
SWIDTH 394 0
DWIDTH 8 0
BBX 5 14 2 0
BITMAP
80
80
80
80
80
80
78
80
80
80
80
80
80
80
ENDCHAR
STARTCHAR G
ENCODING 71
SWIDTH 441 0
DWIDTH 9 0
BBX 7 15 1 0
BITMAP
10
3C
44
82
82
80
80
80
82
82
82
82
82
44
3C
ENDCHAR
STARTCHAR H
ENCODING 72
SWIDTH 467 0
DWIDTH 9 0
BBX 6 14 2 0
BITMAP
84
84
84
84
84
84
FC
84
84
84
84
84
84
84
ENDCHAR
STARTCHAR I
ENCODING 73
SWIDTH 206 0
DWIDTH 4 0
BBX 1 14 2 0
BITMAP
80
80
80
80
80
80
80
80
80
80
80
80
80
80
ENDCHAR
STARTCHAR J
ENCODING 74
SWIDTH 410 0
DWIDTH 8 0
BBX 7 14 1 0
BITMAP
02
02
02
02
02
02
02
02
82
82
82
82
44
78
ENDCHAR
STARTCHAR K
ENCODING 75
SWIDTH 429 0
DWIDTH 9 0
BBX 7 14 2 0
BITMAP
84
84
88
90
90
A0
D0
50
88
88
84
84
82
82
ENDCHAR
STARTCHAR L
ENCODING 76
SWIDTH 378 0
DWIDTH 8 0
BBX 6 14 2 0
BITMAP
80
80
80
80
80
80
80
80
80
80
80
80
80
7C
ENDCHAR
STARTCHAR M
ENCODING 77
SWIDTH 505 0
DWIDTH 10 0
BBX 7 14 2 0
BITMAP
82
C6
A6
A6
AA
9A
92
82
82
82
82
82
82
82
ENDCHAR
STARTCHAR N
ENCODING 78
SWIDTH 481 0
DWIDTH 10 0
BBX 7 14 2 0
BITMAP
82
C2
C2
A2
A2
92
92
92
8A
8A
86
86
82
82
ENDCHAR
STARTCHAR O
ENCODING 79
SWIDTH 446 0
DWIDTH 9 0
BBX 7 15 1 0
BITMAP
10
3C
44
82
82
82
82
82
82
82
82
82
82
44
3C
ENDCHAR
STARTCHAR P
ENCODING 80
SWIDTH 429 0
DWIDTH 9 0
BBX 7 14 2 0
BITMAP
90
84
82
82
82
84
7C
80
80
80
80
80
80
80
ENDCHAR
STARTCHAR Q
ENCODING 81
SWIDTH 433 0
DWIDTH 9 0
BBX 7 17 1 -2
BITMAP
10
78
44
82
82
82
82
82
82
82
82
82
84
44
7C
10
10
ENDCHAR
STARTCHAR R
ENCODING 82
SWIDTH 427 0
DWIDTH 9 0
BBX 7 14 2 0
BITMAP
90
84
82
82
84
84
7C
88
88
88
84
84
84
82
ENDCHAR
STARTCHAR S
ENCODING 83
SWIDTH 400 0
DWIDTH 8 0
BBX 7 15 1 0
BITMAP
10
78
44
82
82
40
40
10
18
04
04
82
82
44
3C
ENDCHAR
STARTCHAR T
ENCODING 84
SWIDTH 396 0
DWIDTH 8 0
BBX 1 14 4 0
BITMAP
80
80
80
80
80
80
80
80
80
80
80
80
80
80
ENDCHAR
STARTCHAR U
ENCODING 85
SWIDTH 474 0
DWIDTH 9 0
BBX 7 14 2 0
BITMAP
82
82
82
82
82
82
82
82
82
82
82
42
44
7C
ENDCHAR
STARTCHAR V
ENCODING 86
SWIDTH 411 0
DWIDTH 8 0
BBX 7 14 1 0
BITMAP
82
42
42
44
44
24
24
24
28
28
18
18
10
10
ENDCHAR
STARTCHAR W
ENCODING 87
SWIDTH 585 0
DWIDTH 12 0
BBX 11 14 1 0
BITMAP
8420
4620
4640
4640
4A40
4A40
2A40
2940
2980
2980
3180
1180
1080
1080
ENDCHAR
STARTCHAR X
ENCODING 88
SWIDTH 410 0
DWIDTH 8 0
BBX 7 14 1 0
BITMAP
42
44
44
28
28
18
10
18
28
28
44
44
42
82
ENDCHAR
STARTCHAR Y
ENCODING 89
SWIDTH 395 0
DWIDTH 8 0
BBX 6 14 2 0
BITMAP
84
88
88
50
50
30
20
20
20
20
20
20
20
20
ENDCHAR
STARTCHAR Z
ENCODING 90
SWIDTH 385 0
DWIDTH 8 0
BBX 6 14 1 0
BITMAP
04
04
04
08
08
10
10
10
20
20
40
40
40
FC
ENDCHAR
STARTCHAR bracketleft
ENCODING 91
SWIDTH 278 0
DWIDTH 6 0
BBX 3 18 0 -2
BITMAP
E0
80
80
80
80
80
80
80
80
80
80
80
80
80
80
80
80
E0
ENDCHAR
STARTCHAR backslash
ENCODING 92
SWIDTH 286 0
DWIDTH 6 0
BBX 4 14 1 0
BITMAP
80
40
40
40
40
20
20
20
20
10
10
10
10
10
ENDCHAR
STARTCHAR bracketright
ENCODING 93
SWIDTH 278 0
DWIDTH 6 0
BBX 4 18 2 -2
BITMAP
E0
10
10
10
10
10
10
10
10
10
10
10
10
10
10
10
10
E0
ENDCHAR
STARTCHAR asciicircum
ENCODING 94
SWIDTH 381 0
DWIDTH 8 0
BBX 6 7 1 7
BITMAP
10
28
28
28
44
44
84
ENDCHAR
STARTCHAR underscore
ENCODING 95
SWIDTH 350 0
DWIDTH 7 0
BBX 6 1 1 0
BITMAP
FC
ENDCHAR
STARTCHAR grave
ENCODING 96
SWIDTH 157 0
DWIDTH 3 0
BBX 1 2 2 12
BITMAP
80
80
ENDCHAR
STARTCHAR a
ENCODING 97
SWIDTH 392 0
DWIDTH 8 0
BBX 6 11 1 0
BITMAP
10
58
44
04
04
14
44
84
84
44
74
ENDCHAR
STARTCHAR b
ENCODING 98
SWIDTH 410 0
DWIDTH 8 0
BBX 6 14 1 0
BITMAP
80
80
80
90
B8
44
84
84
84
84
84
84
44
B8
ENDCHAR
STARTCHAR c
ENCODING 99
SWIDTH 384 0
DWIDTH 8 0
BBX 6 11 1 0
BITMAP
10
70
44
80
80
80
80
80
84
44
70
ENDCHAR
STARTCHAR d
ENCODING 100
SWIDTH 410 0
DWIDTH 8 0
BBX 6 14 1 0
BITMAP
04
04
04
14
7C
44
84
84
84
84
84
84
44
74
ENDCHAR
STARTCHAR e
ENCODING 101
SWIDTH 391 0
DWIDTH 8 0
BBX 6 11 1 0
BITMAP
10
78
44
84
84
7C
80
80
84
44
78
ENDCHAR
STARTCHAR f
ENCODING 102
SWIDTH 264 0
DWIDTH 5 0
BBX 4 15 2 0
BITMAP
10
60
40
80
80
80
80
80
80
80
80
80
80
80
80
ENDCHAR
STARTCHAR g
ENCODING 103
SWIDTH 397 0
DWIDTH 8 0
BBX 6 14 1 -3
BITMAP
10
74
44
84
84
84
84
84
84
44
74
04
04
08
ENDCHAR
STARTCHAR h
ENCODING 104
SWIDTH 411 0
DWIDTH 8 0
BBX 6 14 1 0
BITMAP
80
80
80
90
B8
44
84
84
84
84
84
84
84
84
ENDCHAR
STARTCHAR i
ENCODING 105
SWIDTH 201 0
DWIDTH 4 0
BBX 2 14 1 0
BITMAP
C0
00
00
00
40
40
40
40
40
40
40
40
40
40
ENDCHAR
STARTCHAR j
ENCODING 106
SWIDTH 190 0
DWIDTH 4 0
BBX 4 18 0 -4
BITMAP
30
00
00
00
20
20
20
20
20
20
20
20
20
20
20
20
20
C0
ENDCHAR
STARTCHAR k
ENCODING 107
SWIDTH 379 0
DWIDTH 8 0
BBX 6 14 1 0
BITMAP
80
80
80
80
88
90
90
B0
D0
88
88
88
84
84
ENDCHAR
STARTCHAR l
ENCODING 108
SWIDTH 165 0
DWIDTH 3 0
BBX 1 14 1 0
BITMAP
80
80
80
80
80
80
80
80
80
80
80
80
80
80
ENDCHAR
STARTCHAR m
ENCODING 109
SWIDTH 632 0
DWIDTH 13 0
BBX 10 11 1 0
BITMAP
1100
B9C0
4C40
8440
8440
8440
8440
8440
8440
8440
8440
ENDCHAR
STARTCHAR n
ENCODING 110
SWIDTH 411 0
DWIDTH 8 0
BBX 6 11 1 0
BITMAP
10
B8
44
84
84
84
84
84
84
84
84
ENDCHAR
STARTCHAR o
ENCODING 111
SWIDTH 398 0
DWIDTH 8 0
BBX 6 11 1 0
BITMAP
10
78
44
84
84
84
84
84
84
44
78
ENDCHAR
STARTCHAR p
ENCODING 112
SWIDTH 416 0
DWIDTH 8 0
BBX 6 14 2 -3
BITMAP
10
B8
44
84
84
84
84
84
84
44
B8
80
80
80
ENDCHAR
STARTCHAR q
ENCODING 113
SWIDTH 416 0
DWIDTH 8 0
BBX 6 14 1 -3
BITMAP
10
7C
44
84
84
84
84
84
84
44
74
04
04
04
ENDCHAR
STARTCHAR r
ENCODING 114
SWIDTH 274 0
DWIDTH 5 0
BBX 4 11 1 0
BITMAP
10
A0
40
80
80
80
80
80
80
80
80
ENDCHAR
STARTCHAR s
ENCODING 115
SWIDTH 352 0
DWIDTH 7 0
BBX 6 11 1 0
BITMAP
10
78
44
80
40
60
08
04
84
48
78
ENDCHAR
STARTCHAR t
ENCODING 116
SWIDTH 253 0
DWIDTH 5 0
BBX 3 13 2 0
BITMAP
80
80
80
80
80
80
80
80
80
80
80
40
20
ENDCHAR
STARTCHAR u
ENCODING 117
SWIDTH 411 0
DWIDTH 8 0
BBX 6 10 1 0
BITMAP
84
84
84
84
84
84
84
84
4C
74
ENDCHAR
STARTCHAR v
ENCODING 118
SWIDTH 345 0
DWIDTH 7 0
BBX 5 10 2 0
BITMAP
88
88
88
90
50
50
50
60
20
20
ENDCHAR
STARTCHAR w
ENCODING 119
SWIDTH 520 0
DWIDTH 10 0
BBX 10 10 1 0
BITMAP
8440
4C40
4C80
4C80
4A80
3280
3300
3300
3300
2100
ENDCHAR
STARTCHAR x
ENCODING 120
SWIDTH 338 0
DWIDTH 7 0
BBX 6 10 0 0
BITMAP
44
44
28
30
10
30
28
48
44
84
ENDCHAR
STARTCHAR y
ENCODING 121
SWIDTH 335 0
DWIDTH 7 0
BBX 5 13 1 -3
BITMAP
88
88
88
88
50
50
50
60
20
20
20
20
40
ENDCHAR
STARTCHAR z
ENCODING 122
SWIDTH 353 0
DWIDTH 7 0
BBX 5 10 2 0
BITMAP
08
10
10
20
20
40
40
80
80
F8
ENDCHAR
STARTCHAR braceleft
ENCODING 123
SWIDTH 231 0
DWIDTH 5 0
BBX 4 18 1 -2
BITMAP
20
40
80
80
80
80
80
80
80
80
80
80
80
80
80
80
40
70
ENDCHAR
STARTCHAR bar
ENCODING 124
SWIDTH 119 0
DWIDTH 2 0
BBX 1 17 1 -1
BITMAP
80
80
80
80
80
80
80
80
80
80
80
80
80
80
80
80
80
ENDCHAR
STARTCHAR braceright
ENCODING 125
SWIDTH 231 0
DWIDTH 5 0
BBX 3 18 1 -2
BITMAP
80
40
40
40
40
40
40
40
40
20
40
40
40
40
40
40
40
C0
ENDCHAR
STARTCHAR asciitilde
ENCODING 126
SWIDTH 444 0
DWIDTH 9 0
BBX 7 2 2 5
BITMAP
A2
0C
ENDCHAR
STARTCHAR exclamdown
ENCODING 161
SWIDTH 235 0
DWIDTH 5 0
BBX 2 14 1 1
BITMAP
40
C0
00
00
00
40
40
40
40
40
40
40
40
40
ENDCHAR
STARTCHAR degree
ENCODING 176
SWIDTH 358 0
DWIDTH 7 0
BBX 7 7 1 10
BITMAP
10
38
44
82
82
44
3C
ENDCHAR
STARTCHAR ordmasculine
ENCODING 186
SWIDTH 272 0
DWIDTH 5 0
BBX 5 9 1 6
BITMAP
20
50
88
88
88
88
50
00
78
ENDCHAR
STARTCHAR questiondown
ENCODING 191
SWIDTH 330 0
DWIDTH 7 0
BBX 6 14 1 -4
BITMAP
30
00
00
10
10
10
10
20
40
44
84
84
48
78
ENDCHAR
ENDFONT
